<svg xmlns="http://www.w3.org/2000/svg" id="e189b3b9-b88e-4ad6-86fc-a3cf637fca9f" width="1082.439" height="449.881" data-name="Layer 1">
  <style>
    .rectangle{fill:#4f5d75}@media (prefers-color-scheme:dark){.rectangle{fill:#ef8354}}
  </style>
  <path fill="#ffb9b9" d="M77.591 390.495l-24.819-1.655 8.273 37.229 28.128-11.582-11.582-23.992z"/>
  <path fill="#2f2e41" d="M305.1 321.001l-57.911-56.257-33.093 25.647-65.357 78.594 7.446 11.582 79.421-53.775 53.775 70.321 51.293-25.646-35.574-50.466z"/>
  <path d="M305.1 321.001l-57.911-56.257-33.093 25.647-65.357 78.594 7.446 11.582 79.421-53.775 53.775 70.321 51.293-25.646-35.574-50.466z" opacity=".1"/>
  <path fill="#ffb9b9" d="M368.845 583.29l-7.446 5.79-60.394-20.682-14.064-5.791-28.128 5.79s0-23.164 26.474-22.336l27.3 6.618 32.266 2.482z" transform="translate(-58.78 -225.06)"/>
  <path fill="#2f2e41" d="M363.839 419.451l-18.201 11.582h-21.51l-100.104-37.229-146.433 26.474-4.137-31.438 134.024-58.738 117.478 38.883 38.883 50.466z"/>
  <path fill="#ffb9b9" d="M305.142 497.25l-12.41 2.481-2.704-3.155a16.717 16.717 0 01-2.26-18.355l34.747-45.501s9.928-22.338 25.647-13.237-13.237 23.992-13.237 23.992l-17.374 27.3 1.655 14.065z" transform="translate(-58.78 -225.06)"/>
  <circle cx="324.956" cy="186.15" r="32.265" fill="#ffb9b9"/>
  <path fill="#ffb9b9" d="M369.258 434.788l14.892 35.574 35.574-14.892s-11.582-28.128-11.582-28.955-38.884 8.273-38.884 8.273z" transform="translate(-58.78 -225.06)"/>
  <path fill="#575a89" d="M467.22 540.03a185.383 185.383 0 01-9.093 57.34l-2.415 7.43-11.583 52.947-12.41 3.31-9.1-11.583-18.2-13.237-13.237-21.51-11.35-18.912-3.542-5.907-12.41-62.048-47.156-26.474-15.719-2.482 3.31-9.1 14.064-19.028 14.064-1.655 4.137-3.31 3.309 1.655 13.237-7.445 4.136 1.654 24.19 2.25 14.694-3.077 21.129-11.342 8.654 1.414 29.783 24.82a185.22 185.22 0 0111.508 64.29z" transform="translate(-58.78 -225.06)"/>
  <path fill="#2f2e41" d="M119.17 628.365s7.41-12.559 4.28-14.025-16.42-7.311-16.42-7.311l-19.493-6.46s-28.126-41.801-28.743-5.45 20.479 45.088 20.479 45.088 18.816 40.493 29.474 34.036 21.323-28.376 21.323-28.376-19.22-10.332-10.9-17.502z" transform="translate(-58.78 -225.06)"/>
  <path d="M399.413 307.764l-31.438 20.683-46.924 42.308-3.541-5.907-9.928-49.638h2.482l25.647-47.156 63.702 39.71z" opacity=".1"/>
  <path fill="#575a89" d="M335.711 263.09l-25.647 47.156h-9.1l-5.791 16.546-13.237 3.31 35.574 38.883 50.465-45.502 31.438-20.683-63.702-39.71z"/>
  <path fill="#2f2e41" d="M358.64 387.22l-3.495 1.344a4.88 4.88 0 01-1.248-6.86l-6.46-.302a48.782 48.782 0 0172.825-5.87c.294-1.013 3.5.958 4.81 2.956.44-1.648 3.446 6.32 4.509 11.953.492-1.876 2.385 1.152.727 4.057 1.05-.154 1.525 2.535.712 4.032 1.149-.54.955 2.669-.291 4.813 1.64-.145-12.935 22.476-18.837 35.696-1.713-7.873-3.64-16.164-9.166-22.029-.939-.997-1.967-1.905-2.994-2.811l-5.554-4.902c-6.458-5.7-12.332-12.736-20.935-14.867-5.913-1.464-9.65-1.794-6.429-8.456-2.91 1.214-5.63 3.02-8.566 4.15.04-.932.45-1.973.392-2.905z" transform="translate(-58.78 -225.06)"/>
  <circle cx="341.088" cy="189.873" r="5.791" fill="#ffb9b9"/>
  <path d="M178.439 59.71h28v28h-28z" class="rectangle"/>
  <path fill="#3f3d56" d="M282.22 296.77h-34v-34h34zm-32.522-1.479h31.043v-31.043h-31.043z" transform="translate(-58.78 -225.06)"/>
  <path d="M108.808 374.617h28v28h-28z" class="rectangle" transform="rotate(74.063 242.579 237.13)"/>
  <path fill="#3f3d56" d="M133.243 417.876l-9.335-32.693 32.693-9.336 9.336 32.693zm-7.508-31.678l8.524 29.85 29.85-8.523-8.524-29.85z" transform="translate(-58.78 -225.06)"/>
  <path d="M118.487 239.049h28v28h-28z" class="rectangle" transform="rotate(133.063 151.952 127.759)"/>
  <path fill="#3f3d56" d="M112.781 277.063l23.215-24.84 24.84 23.215-23.214 24.84zm23.286-22.751l-21.197 22.68 22.681 21.197 21.196-22.68zM1085.012 230.422h-260.17v-5.363h-117.97v5.363H445.63a17.599 17.599 0 00-17.599 17.598v356.252a17.599 17.599 0 0017.599 17.599h639.382a17.599 17.599 0 0017.599-17.599V248.02a17.599 17.599 0 00-17.599-17.598z" transform="translate(-58.78 -225.06)"/>
  <path d="M392.845 36.464h627.391v353.913H392.845z" class="rectangle"/>
  <circle cx="706.004" cy="20.377" r="6.435" fill="#4f5d75"/>
  <path d="M840.813 390.377H392.845V36.464l447.968 353.913z" opacity=".1"/>
  <circle cx="491.013" cy="303.587" r="60.307" fill="#f2f2f2"/>
  <path fill="#3f3d56" d="M563.218 573.972a75.016 75.016 0 1175.016-75.015 75.1 75.1 0 01-75.016 75.015zm0-149.05a74.035 74.035 0 1074.035 74.035 74.119 74.119 0 00-74.035-74.036z" transform="translate(-58.78 -225.06)"/>
  <path fill="#3f3d56" d="M852.392 227.332h58.605v12.246h-58.605zM781.541 131.989h200.307v5.248H781.541zM781.541 148.608h200.307v5.248H781.541zM781.541 165.228h200.307v5.248H781.541zM781.541 181.847h200.307v5.248H781.541zM781.541 198.467h200.307v5.248H781.541z"/>
  <path fill="#f2f2f2" d="M957.356 43.644h24.492v24.492h-24.492z"/>
  <path fill="#3f3d56" d="M1052 304.566h-29.74v-29.74H1052zm-28.447-1.293h27.154V276.12h-27.154zM1120.227 609.001h-61.23v-4.411a.875.875 0 00-.874-.875h-20.993a.875.875 0 00-.875.875V609h-13.12v-4.411a.875.875 0 00-.875-.875h-20.993a.875.875 0 00-.875.875V609h-13.12v-4.411a.875.875 0 00-.875-.875h-20.993a.875.875 0 00-.875.875V609h-13.12v-4.411a.875.875 0 00-.875-.875H929.54a.875.875 0 00-.875.875V609h-13.12v-4.411a.875.875 0 00-.875-.875h-20.993a.875.875 0 00-.875.875V609h-13.12v-4.411a.875.875 0 00-.875-.875h-20.993a.875.875 0 00-.874.875V609H843.82v-4.411a.875.875 0 00-.875-.875H678.501a.875.875 0 00-.875.875V609h-13.12v-4.411a.875.875 0 00-.875-.875h-20.993a.875.875 0 00-.875.875V609h-13.12v-4.411a.875.875 0 00-.875-.875h-20.993a.875.875 0 00-.875.875V609h-13.12v-4.411a.875.875 0 00-.875-.875h-20.993a.875.875 0 00-.875.875V609h-13.12v-4.411a.875.875 0 00-.875-.875H535.05a.875.875 0 00-.874.875V609h-13.121v-4.411a.875.875 0 00-.875-.875h-20.993a.875.875 0 00-.874.875V609h-13.12v-4.411a.875.875 0 00-.876-.875h-20.992a.875.875 0 00-.875.875V609h-40.237a20.993 20.993 0 00-20.992 20.993v9.493a20.993 20.993 0 0020.992 20.993h698.015a20.993 20.993 0 0020.993-20.993v-9.493a20.993 20.993 0 00-20.993-20.993z" transform="translate(-58.78 -225.06)"/>
</svg>
